<svg version="1.1" id="logo" xmlns="http://www.w3.org/2000/svg" xmlns:xlink="http://www.w3.org/1999/xlink" x="0px" y="0px"
	 width="32px" height="32px" viewBox="0 0 286.25 259.17" enable-background="new 0 0 286.25 259.17" xml:space="preserve">
<g>
	<path fill="#000000" d="M100.6,168.65c-2.76,0-5-2.24-5-5V5c0-2.76,2.24-5,5-5s5,2.24,5,5v158.65
		C105.6,166.41,103.36,168.65,100.6,168.65z"/>
</g>
<g>
	<path fill="#000000" d="M181.35,222.12c-1.86,0-3.65-1.05-4.51-2.84c-13.05-27.22,3.27-195.66,5.17-214.78
		c0.27-2.75,2.74-4.75,5.47-4.48c2.75,0.27,4.75,2.72,4.48,5.47c-5.1,51.18-16.13,188.57-6.11,209.46c1.19,2.49,0.14,5.48-2.35,6.67
		C182.81,221.96,182.07,222.12,181.35,222.12z"/>
</g>
<g>
	<path fill="#000000" d="M69.83,213.16l34.3,37.44l-3.97-1.45l0,0c21.51-1.91,42.51-8.95,61.95-18.84
		c19.47-9.94,37.55-22.73,53.92-37.34c8.19-7.32,15.93-15.13,23.17-23.36c7.2-8.26,13.92-16.94,19.79-26.11
		c5.85-9.15,10.98-18.8,14.28-28.82c1.65-5,2.75-10.1,2.96-15.04c0.05-2.45-0.02-4.88-0.54-7.11c-0.49-2.23-1.29-4.29-2.42-6.09
		c-1.11-1.81-2.64-3.3-4.44-4.53c-1.8-1.23-3.87-2.23-6.17-2.88c-1.1-0.41-2.34-0.58-3.52-0.87c-1.28-0.23-2.65-0.42-3.97-0.63
		c-2.65-0.47-5.36-0.69-8.05-1c-10.78-1.07-21.74-0.93-32.64-0.13c-21.83,1.67-43.51,6.25-64.61,12.63
		c-21.1,6.43-41.67,14.7-61.38,24.61c-19.69,9.93-38.6,21.5-55.76,35.13l-0.03,0.02c-2.16,1.72-5.31,1.36-7.02-0.81
		c-1.72-2.16-1.36-5.31,0.81-7.02l0,0c17.87-14.19,37.31-26.05,57.52-36.25c20.23-10.17,41.29-18.64,62.97-25.25
		c21.67-6.56,44-11.3,66.77-13.04c11.38-0.83,22.87-0.99,34.34,0.15c2.87,0.33,5.74,0.57,8.59,1.07c1.44,0.23,2.84,0.42,4.31,0.69
		c1.54,0.36,3.08,0.6,4.61,1.14c3.07,0.88,6.13,2.29,8.93,4.21c2.8,1.91,5.36,4.42,7.18,7.38c1.86,2.93,3.07,6.17,3.77,9.39
		c0.72,3.24,0.82,6.44,0.75,9.56c-0.27,6.24-1.6,12.15-3.45,17.76c-3.71,11.23-9.2,21.46-15.37,31.13
		c-6.19,9.67-13.2,18.71-20.68,27.29c-7.52,8.56-15.54,16.65-24.02,24.23c-16.97,15.14-35.69,28.4-56.05,38.8
		c-5.1,2.57-10.3,4.98-15.58,7.18c-5.31,2.16-10.69,4.14-16.18,5.87c-5.5,1.68-11.07,3.15-16.71,4.32
		c-5.66,1.13-11.38,1.98-17.14,2.52l0,0c-1.35,0.2-2.64-0.24-3.58-1.08l-0.39-0.36l-37.44-34.3c-2.94-2.7-3.14-7.27-0.45-10.21
		c2.7-2.94,7.27-3.14,10.21-0.45C69.54,212.86,69.69,213.01,69.83,213.16z"/>
</g>
<g>
	<path fill="none" stroke="#000000" stroke-width="15" stroke-linecap="round" stroke-linejoin="round" stroke-miterlimit="10" d="
		M0,122.4"/>
</g>
</svg>